<mxfile host="app.diagrams.net" agent="Mozilla/5.0 (Windows NT 10.0; Win64; x64) AppleWebKit/537.36 (KHTML, like Gecko) Chrome/139.0.0.0 Safari/537.36" version="28.0.7">
  <diagram name="Page-1" id="vnDMoqZ1RRdvDlq9sLrf">
    <mxGraphModel dx="868" dy="1578" grid="1" gridSize="10" guides="1" tooltips="1" connect="1" arrows="1" fold="1" page="1" pageScale="1" pageWidth="850" pageHeight="1100" math="0" shadow="0">
      <root>
        <mxCell id="0" />
        <mxCell id="1" parent="0" />
        <mxCell id="AV5d__KXOQrdb0YIz4FF-1" value="&lt;font style=&quot;font-size: 24px;&quot;&gt;Start&lt;/font&gt;" style="ellipse;whiteSpace=wrap;html=1;" vertex="1" parent="1">
          <mxGeometry x="358" y="-1020" width="115" height="60" as="geometry" />
        </mxCell>
        <mxCell id="AV5d__KXOQrdb0YIz4FF-2" value="" style="endArrow=classic;html=1;rounded=0;" edge="1" parent="1">
          <mxGeometry width="50" height="50" relative="1" as="geometry">
            <mxPoint x="415" y="-960" as="sourcePoint" />
            <mxPoint x="415" y="-910" as="targetPoint" />
          </mxGeometry>
        </mxCell>
        <mxCell id="AV5d__KXOQrdb0YIz4FF-3" value="&lt;font style=&quot;font-size: 18px;&quot;&gt;Login&lt;/font&gt;" style="shape=parallelogram;perimeter=parallelogramPerimeter;whiteSpace=wrap;html=1;fixedSize=1;" vertex="1" parent="1">
          <mxGeometry x="358" y="-910" width="110" height="50" as="geometry" />
        </mxCell>
        <mxCell id="AV5d__KXOQrdb0YIz4FF-4" value="" style="endArrow=classic;html=1;rounded=0;" edge="1" parent="1">
          <mxGeometry width="50" height="50" relative="1" as="geometry">
            <mxPoint x="410" y="-860" as="sourcePoint" />
            <mxPoint x="410" y="-810" as="targetPoint" />
          </mxGeometry>
        </mxCell>
        <mxCell id="AV5d__KXOQrdb0YIz4FF-5" value="Validasi&lt;div&gt;Login?&lt;/div&gt;" style="rhombus;whiteSpace=wrap;html=1;" vertex="1" parent="1">
          <mxGeometry x="340" y="-810" width="136.5" height="80" as="geometry" />
        </mxCell>
        <mxCell id="AV5d__KXOQrdb0YIz4FF-6" value="" style="endArrow=classic;html=1;rounded=0;" edge="1" parent="1">
          <mxGeometry width="50" height="50" relative="1" as="geometry">
            <mxPoint x="340" y="-770" as="sourcePoint" />
            <mxPoint x="270" y="-770" as="targetPoint" />
          </mxGeometry>
        </mxCell>
        <mxCell id="AV5d__KXOQrdb0YIz4FF-7" value="" style="endArrow=classic;html=1;rounded=0;" edge="1" parent="1">
          <mxGeometry width="50" height="50" relative="1" as="geometry">
            <mxPoint x="270" y="-770" as="sourcePoint" />
            <mxPoint x="270" y="-880" as="targetPoint" />
          </mxGeometry>
        </mxCell>
        <mxCell id="AV5d__KXOQrdb0YIz4FF-8" value="" style="endArrow=classic;html=1;rounded=0;" edge="1" parent="1" target="AV5d__KXOQrdb0YIz4FF-3">
          <mxGeometry width="50" height="50" relative="1" as="geometry">
            <mxPoint x="270" y="-885" as="sourcePoint" />
            <mxPoint x="320" y="-940" as="targetPoint" />
          </mxGeometry>
        </mxCell>
        <mxCell id="AV5d__KXOQrdb0YIz4FF-9" value="no" style="text;html=1;align=center;verticalAlign=middle;whiteSpace=wrap;rounded=0;" vertex="1" parent="1">
          <mxGeometry x="260" y="-790" width="60" height="30" as="geometry" />
        </mxCell>
        <mxCell id="AV5d__KXOQrdb0YIz4FF-10" value="" style="endArrow=classic;html=1;rounded=0;" edge="1" parent="1">
          <mxGeometry width="50" height="50" relative="1" as="geometry">
            <mxPoint x="410" y="-730" as="sourcePoint" />
            <mxPoint x="410" y="-680" as="targetPoint" />
          </mxGeometry>
        </mxCell>
        <mxCell id="AV5d__KXOQrdb0YIz4FF-11" value="yes" style="text;html=1;align=center;verticalAlign=middle;whiteSpace=wrap;rounded=0;" vertex="1" parent="1">
          <mxGeometry x="390" y="-720" width="60" height="30" as="geometry" />
        </mxCell>
        <mxCell id="AV5d__KXOQrdb0YIz4FF-12" value="Admin?" style="rhombus;whiteSpace=wrap;html=1;" vertex="1" parent="1">
          <mxGeometry x="346" y="-680" width="127" height="70" as="geometry" />
        </mxCell>
        <mxCell id="AV5d__KXOQrdb0YIz4FF-13" value="" style="endArrow=classic;html=1;rounded=0;" edge="1" parent="1">
          <mxGeometry width="50" height="50" relative="1" as="geometry">
            <mxPoint x="470" y="-640" as="sourcePoint" />
            <mxPoint x="590" y="-570" as="targetPoint" />
          </mxGeometry>
        </mxCell>
        <mxCell id="AV5d__KXOQrdb0YIz4FF-14" value="" style="endArrow=classic;html=1;rounded=0;" edge="1" parent="1">
          <mxGeometry width="50" height="50" relative="1" as="geometry">
            <mxPoint x="346" y="-640" as="sourcePoint" />
            <mxPoint x="230" y="-570" as="targetPoint" />
          </mxGeometry>
        </mxCell>
        <mxCell id="AV5d__KXOQrdb0YIz4FF-15" value="pilih menu" style="rhombus;whiteSpace=wrap;html=1;" vertex="1" parent="1">
          <mxGeometry x="150" y="-570" width="127" height="70" as="geometry" />
        </mxCell>
        <mxCell id="AV5d__KXOQrdb0YIz4FF-16" value="" style="endArrow=classic;html=1;rounded=0;" edge="1" parent="1">
          <mxGeometry width="50" height="50" relative="1" as="geometry">
            <mxPoint x="250" y="-520" as="sourcePoint" />
            <mxPoint x="340" y="-460" as="targetPoint" />
          </mxGeometry>
        </mxCell>
        <mxCell id="AV5d__KXOQrdb0YIz4FF-17" value="" style="endArrow=classic;html=1;rounded=0;" edge="1" parent="1">
          <mxGeometry width="50" height="50" relative="1" as="geometry">
            <mxPoint x="210" y="-500" as="sourcePoint" />
            <mxPoint x="210" y="-430" as="targetPoint" />
          </mxGeometry>
        </mxCell>
        <mxCell id="AV5d__KXOQrdb0YIz4FF-18" value="" style="endArrow=classic;html=1;rounded=0;" edge="1" parent="1">
          <mxGeometry width="50" height="50" relative="1" as="geometry">
            <mxPoint x="160" y="-530" as="sourcePoint" />
            <mxPoint x="90" y="-460" as="targetPoint" />
          </mxGeometry>
        </mxCell>
        <mxCell id="AV5d__KXOQrdb0YIz4FF-19" value="kelolah data kelas" style="rounded=1;whiteSpace=wrap;html=1;" vertex="1" parent="1">
          <mxGeometry x="157" y="-430" width="120" height="50" as="geometry" />
        </mxCell>
        <mxCell id="AV5d__KXOQrdb0YIz4FF-21" value="kelolah data mapel" style="rounded=1;whiteSpace=wrap;html=1;" vertex="1" parent="1">
          <mxGeometry x="290" y="-450" width="120" height="50" as="geometry" />
        </mxCell>
        <mxCell id="AV5d__KXOQrdb0YIz4FF-22" style="edgeStyle=orthogonalEdgeStyle;rounded=0;orthogonalLoop=1;jettySize=auto;html=1;exitX=0.5;exitY=1;exitDx=0;exitDy=0;" edge="1" parent="1">
          <mxGeometry relative="1" as="geometry">
            <mxPoint x="90" y="-390" as="sourcePoint" />
            <mxPoint x="90" y="-390" as="targetPoint" />
          </mxGeometry>
        </mxCell>
        <mxCell id="AV5d__KXOQrdb0YIz4FF-23" value="Selesai" style="rhombus;whiteSpace=wrap;html=1;" vertex="1" parent="1">
          <mxGeometry x="150" y="-340" width="120" height="70" as="geometry" />
        </mxCell>
        <mxCell id="AV5d__KXOQrdb0YIz4FF-24" value="" style="endArrow=classic;html=1;rounded=0;" edge="1" parent="1">
          <mxGeometry width="50" height="50" relative="1" as="geometry">
            <mxPoint x="150" y="-300" as="sourcePoint" />
            <mxPoint x="90" y="-300" as="targetPoint" />
          </mxGeometry>
        </mxCell>
        <mxCell id="AV5d__KXOQrdb0YIz4FF-25" value="" style="endArrow=classic;html=1;rounded=0;" edge="1" parent="1">
          <mxGeometry width="50" height="50" relative="1" as="geometry">
            <mxPoint x="100" y="-300" as="sourcePoint" />
            <mxPoint x="100" y="-540" as="targetPoint" />
          </mxGeometry>
        </mxCell>
        <mxCell id="AV5d__KXOQrdb0YIz4FF-26" value="" style="endArrow=classic;html=1;rounded=0;" edge="1" parent="1">
          <mxGeometry width="50" height="50" relative="1" as="geometry">
            <mxPoint x="100" y="-530" as="sourcePoint" />
            <mxPoint x="140" y="-530" as="targetPoint" />
          </mxGeometry>
        </mxCell>
        <mxCell id="AV5d__KXOQrdb0YIz4FF-27" value="kelolah data user" style="rounded=1;whiteSpace=wrap;html=1;" vertex="1" parent="1">
          <mxGeometry x="30" y="-460" width="120" height="50" as="geometry" />
        </mxCell>
        <mxCell id="AV5d__KXOQrdb0YIz4FF-28" value="yes" style="text;html=1;align=center;verticalAlign=middle;whiteSpace=wrap;rounded=0;" vertex="1" parent="1">
          <mxGeometry x="250" y="-630" width="60" height="30" as="geometry" />
        </mxCell>
        <mxCell id="AV5d__KXOQrdb0YIz4FF-29" value="no" style="text;html=1;align=center;verticalAlign=middle;whiteSpace=wrap;rounded=0;" vertex="1" parent="1">
          <mxGeometry x="520" y="-620" width="60" height="30" as="geometry" />
        </mxCell>
        <mxCell id="AV5d__KXOQrdb0YIz4FF-31" value="no" style="text;html=1;align=center;verticalAlign=middle;whiteSpace=wrap;rounded=0;" vertex="1" parent="1">
          <mxGeometry x="90" y="-320" width="60" height="30" as="geometry" />
        </mxCell>
        <mxCell id="AV5d__KXOQrdb0YIz4FF-32" value="guru" style="rhombus;whiteSpace=wrap;html=1;" vertex="1" parent="1">
          <mxGeometry x="530" y="-570" width="127" height="70" as="geometry" />
        </mxCell>
        <mxCell id="AV5d__KXOQrdb0YIz4FF-33" value="" style="endArrow=classic;html=1;rounded=0;" edge="1" parent="1">
          <mxGeometry width="50" height="50" relative="1" as="geometry">
            <mxPoint x="657" y="-535.5" as="sourcePoint" />
            <mxPoint x="720" y="-510" as="targetPoint" />
          </mxGeometry>
        </mxCell>
        <mxCell id="AV5d__KXOQrdb0YIz4FF-34" value="" style="endArrow=classic;html=1;rounded=0;" edge="1" parent="1">
          <mxGeometry width="50" height="50" relative="1" as="geometry">
            <mxPoint x="590" y="-500" as="sourcePoint" />
            <mxPoint x="590" y="-460" as="targetPoint" />
          </mxGeometry>
        </mxCell>
        <mxCell id="AV5d__KXOQrdb0YIz4FF-35" value="yes" style="text;html=1;align=center;verticalAlign=middle;whiteSpace=wrap;rounded=0;" vertex="1" parent="1">
          <mxGeometry x="580" y="-500" width="60" height="30" as="geometry" />
        </mxCell>
        <mxCell id="AV5d__KXOQrdb0YIz4FF-36" value="no" style="text;html=1;align=center;verticalAlign=middle;whiteSpace=wrap;rounded=0;" vertex="1" parent="1">
          <mxGeometry x="650" y="-560" width="60" height="30" as="geometry" />
        </mxCell>
        <mxCell id="AV5d__KXOQrdb0YIz4FF-37" value="Pilih kelas dan mapel" style="rounded=1;whiteSpace=wrap;html=1;" vertex="1" parent="1">
          <mxGeometry x="530" y="-455" width="120" height="55" as="geometry" />
        </mxCell>
        <mxCell id="AV5d__KXOQrdb0YIz4FF-38" value="input nilai" style="rounded=1;whiteSpace=wrap;html=1;" vertex="1" parent="1">
          <mxGeometry x="536.75" y="-370" width="106.5" height="30" as="geometry" />
        </mxCell>
        <mxCell id="AV5d__KXOQrdb0YIz4FF-39" value="" style="endArrow=classic;html=1;rounded=0;exitX=0.5;exitY=1;exitDx=0;exitDy=0;" edge="1" parent="1" source="AV5d__KXOQrdb0YIz4FF-37">
          <mxGeometry width="50" height="50" relative="1" as="geometry">
            <mxPoint x="580" y="-370" as="sourcePoint" />
            <mxPoint x="590" y="-370" as="targetPoint" />
          </mxGeometry>
        </mxCell>
        <mxCell id="AV5d__KXOQrdb0YIz4FF-40" value="" style="endArrow=classic;html=1;rounded=0;exitX=0.5;exitY=1;exitDx=0;exitDy=0;" edge="1" parent="1">
          <mxGeometry width="50" height="50" relative="1" as="geometry">
            <mxPoint x="589.58" y="-340" as="sourcePoint" />
            <mxPoint x="590" y="-310" as="targetPoint" />
          </mxGeometry>
        </mxCell>
        <mxCell id="AV5d__KXOQrdb0YIz4FF-41" value="lihat rekap nilai" style="rounded=1;whiteSpace=wrap;html=1;" vertex="1" parent="1">
          <mxGeometry x="536.75" y="-310" width="106.5" height="30" as="geometry" />
        </mxCell>
        <mxCell id="AV5d__KXOQrdb0YIz4FF-42" value="" style="endArrow=classic;html=1;rounded=0;exitX=0.5;exitY=1;exitDx=0;exitDy=0;" edge="1" parent="1">
          <mxGeometry width="50" height="50" relative="1" as="geometry">
            <mxPoint x="589.58" y="-280" as="sourcePoint" />
            <mxPoint x="590" y="-250" as="targetPoint" />
          </mxGeometry>
        </mxCell>
        <mxCell id="AV5d__KXOQrdb0YIz4FF-43" value="Selesai" style="rhombus;whiteSpace=wrap;html=1;" vertex="1" parent="1">
          <mxGeometry x="548.5" y="-240" width="90" height="50" as="geometry" />
        </mxCell>
        <mxCell id="AV5d__KXOQrdb0YIz4FF-44" value="" style="endArrow=classic;html=1;rounded=0;" edge="1" parent="1">
          <mxGeometry width="50" height="50" relative="1" as="geometry">
            <mxPoint x="548.5" y="-200" as="sourcePoint" />
            <mxPoint x="480" y="-200" as="targetPoint" />
          </mxGeometry>
        </mxCell>
        <mxCell id="AV5d__KXOQrdb0YIz4FF-45" value="" style="endArrow=classic;html=1;rounded=0;" edge="1" parent="1">
          <mxGeometry width="50" height="50" relative="1" as="geometry">
            <mxPoint x="480" y="-210" as="sourcePoint" />
            <mxPoint x="480" y="-540" as="targetPoint" />
          </mxGeometry>
        </mxCell>
        <mxCell id="AV5d__KXOQrdb0YIz4FF-46" value="" style="endArrow=classic;html=1;rounded=0;" edge="1" parent="1">
          <mxGeometry width="50" height="50" relative="1" as="geometry">
            <mxPoint x="490" y="-535.42" as="sourcePoint" />
            <mxPoint x="530" y="-535.42" as="targetPoint" />
          </mxGeometry>
        </mxCell>
        <mxCell id="AV5d__KXOQrdb0YIz4FF-47" value="Nilai siswa" style="rounded=1;whiteSpace=wrap;html=1;" vertex="1" parent="1">
          <mxGeometry x="700" y="-510" width="120" height="50" as="geometry" />
        </mxCell>
        <mxCell id="AV5d__KXOQrdb0YIz4FF-50" value="Selesai" style="rhombus;whiteSpace=wrap;html=1;" vertex="1" parent="1">
          <mxGeometry x="710" y="-380" width="90" height="50" as="geometry" />
        </mxCell>
        <mxCell id="AV5d__KXOQrdb0YIz4FF-51" value="" style="endArrow=classic;html=1;rounded=0;exitX=0;exitY=0.5;exitDx=0;exitDy=0;" edge="1" parent="1" source="AV5d__KXOQrdb0YIz4FF-50">
          <mxGeometry width="50" height="50" relative="1" as="geometry">
            <mxPoint x="685" y="-355" as="sourcePoint" />
            <mxPoint x="660" y="-355" as="targetPoint" />
          </mxGeometry>
        </mxCell>
        <mxCell id="AV5d__KXOQrdb0YIz4FF-52" value="" style="endArrow=classic;html=1;rounded=0;" edge="1" parent="1">
          <mxGeometry width="50" height="50" relative="1" as="geometry">
            <mxPoint x="670" y="-360" as="sourcePoint" />
            <mxPoint x="670" y="-480" as="targetPoint" />
          </mxGeometry>
        </mxCell>
        <mxCell id="AV5d__KXOQrdb0YIz4FF-53" value="" style="endArrow=classic;html=1;rounded=0;" edge="1" parent="1">
          <mxGeometry width="50" height="50" relative="1" as="geometry">
            <mxPoint x="670" y="-480" as="sourcePoint" />
            <mxPoint x="700" y="-480" as="targetPoint" />
          </mxGeometry>
        </mxCell>
        <mxCell id="AV5d__KXOQrdb0YIz4FF-54" value="" style="endArrow=classic;html=1;rounded=0;exitX=0.5;exitY=1;exitDx=0;exitDy=0;entryX=0.5;entryY=0;entryDx=0;entryDy=0;" edge="1" parent="1" source="AV5d__KXOQrdb0YIz4FF-47" target="AV5d__KXOQrdb0YIz4FF-50">
          <mxGeometry width="50" height="50" relative="1" as="geometry">
            <mxPoint x="848" y="-430" as="sourcePoint" />
            <mxPoint x="780" y="-430" as="targetPoint" />
          </mxGeometry>
        </mxCell>
        <mxCell id="AV5d__KXOQrdb0YIz4FF-56" value="no" style="text;html=1;align=center;verticalAlign=middle;whiteSpace=wrap;rounded=0;" vertex="1" parent="1">
          <mxGeometry x="476.75" y="-220" width="60" height="30" as="geometry" />
        </mxCell>
        <mxCell id="AV5d__KXOQrdb0YIz4FF-57" value="no" style="text;html=1;align=center;verticalAlign=middle;whiteSpace=wrap;rounded=0;" vertex="1" parent="1">
          <mxGeometry x="657" y="-380" width="60" height="30" as="geometry" />
        </mxCell>
        <mxCell id="AV5d__KXOQrdb0YIz4FF-58" value="Logout" style="rounded=1;whiteSpace=wrap;html=1;" vertex="1" parent="1">
          <mxGeometry x="360" y="-120" width="120" height="60" as="geometry" />
        </mxCell>
        <mxCell id="AV5d__KXOQrdb0YIz4FF-59" value="" style="endArrow=classic;html=1;rounded=0;entryX=0;entryY=0.5;entryDx=0;entryDy=0;" edge="1" parent="1" target="AV5d__KXOQrdb0YIz4FF-58">
          <mxGeometry width="50" height="50" relative="1" as="geometry">
            <mxPoint x="210" y="-270" as="sourcePoint" />
            <mxPoint x="250" y="-160" as="targetPoint" />
            <Array as="points">
              <mxPoint x="210" y="-230" />
            </Array>
          </mxGeometry>
        </mxCell>
        <mxCell id="AV5d__KXOQrdb0YIz4FF-60" value="" style="endArrow=classic;html=1;rounded=0;entryX=1;entryY=0.5;entryDx=0;entryDy=0;" edge="1" parent="1" target="AV5d__KXOQrdb0YIz4FF-58">
          <mxGeometry width="50" height="50" relative="1" as="geometry">
            <mxPoint x="750" y="-330" as="sourcePoint" />
            <mxPoint x="800" y="-380" as="targetPoint" />
            <Array as="points">
              <mxPoint x="640" y="-180" />
            </Array>
          </mxGeometry>
        </mxCell>
        <mxCell id="AV5d__KXOQrdb0YIz4FF-61" value="" style="endArrow=classic;html=1;rounded=0;entryX=0.578;entryY=0.014;entryDx=0;entryDy=0;entryPerimeter=0;" edge="1" parent="1" target="AV5d__KXOQrdb0YIz4FF-58">
          <mxGeometry width="50" height="50" relative="1" as="geometry">
            <mxPoint x="590" y="-190" as="sourcePoint" />
            <mxPoint x="640" y="-240" as="targetPoint" />
          </mxGeometry>
        </mxCell>
      </root>
    </mxGraphModel>
  </diagram>
</mxfile>
